# xmcd CD database file
#
# Track frame offsets:
#	150
#	115954
#	217982
#
# Disc length: 3361 seconds
#
# Revision: 0
# Processed by: cddbd v1.5.1PL0 Copyright (c) Steve Scherf et al.
# Submitted via: CDex 1.50beta10
#
DISCID=230d1f03
DTITLE=Archie Shepp - Black Gipsy
DYEAR=1969
DGENRE=Jazz
TTITLE0=Black Gipsy
TTITLE1=Epitaph of a small winner - Rio De Janeiro, Casablanca, Chicago
TTITLE2=Pitchin' Can
EXTD=YEAR: 1969
EXTT0=
EXTT1=
EXTT2=
PLAYORDER=
